<?xml version="1.0" standalone="no"?>
<!DOCTYPE svg PUBLIC "-//W3C//DTD SVG 20010904//EN"
 "http://www.w3.org/TR/2001/REC-SVG-20010904/DTD/svg10.dtd">
<svg version="1.0" xmlns="http://www.w3.org/2000/svg"
 width="1040.000000pt" height="388.000000pt" viewBox="0 0 1040.000000 388.000000"
 preserveAspectRatio="xMidYMid meet">

<g transform="translate(0.000000,388.000000) scale(0.100000,-0.100000)"
fill="#000000" stroke="none">
<path d="M10086 1337 c3 -10 9 -15 12 -12 3 3 0 11 -7 18 -10 9 -11 8 -5 -6z"/>
<path d="M10335 1300 c0 -23 4 -39 10 -37 10 4 8 43 -4 64 -3 7 -6 -6 -6 -27z"/>
<path d="M10363 1325 c19 -78 19 -75 -10 -76 -16 -1 -31 -1 -35 0 -5 0 -7 -2
-7 -6 6 -35 -23 -46 -40 -15 -7 11 -10 12 -11 3 0 -7 -6 -11 -15 -7 -8 3 -15
1 -15 -4 0 -6 -4 -10 -10 -10 -18 0 -10 18 10 25 11 4 17 11 14 17 -4 6 -10 5
-15 -3 -7 -11 -9 -11 -9 1 0 9 -3 11 -8 5 -4 -5 -20 -11 -37 -13 -38 -4 -37
-3 -38 -51 -2 -38 -17 -61 -17 -25 0 8 -4 12 -10 9 -5 -3 -10 -1 -10 4 0 6 5
11 10 11 6 0 0 10 -12 22 -14 14 -18 23 -10 26 7 2 12 8 12 13 0 6 -5 7 -10 4
-10 -6 -40 17 -40 30 0 3 10 3 23 0 17 -5 19 -4 7 4 -8 6 -26 11 -40 11 -17 0
-21 -3 -12 -9 7 -4 14 -17 15 -28 1 -14 6 -19 15 -15 12 4 12 1 3 -16 -6 -11
-8 -28 -4 -38 4 -12 2 -15 -8 -12 -8 3 -15 10 -15 16 -1 7 -3 15 -4 20 -1 4
-1 18 0 32 2 22 0 23 -15 10 -16 -14 -17 -13 -11 10 6 23 6 23 -5 5 -6 -11
-18 -25 -26 -31 -12 -10 -11 -13 2 -18 8 -3 15 -1 15 4 0 6 7 10 15 10 11 0
12 -5 5 -26 -6 -14 -8 -30 -5 -35 4 -5 -1 -6 -9 -3 -9 3 -14 10 -13 16 1 6
-16 16 -38 24 -37 12 -38 12 -17 -3 26 -18 28 -41 7 -69 -11 -15 -15 -16 -16
-4 -1 8 -1 18 0 23 0 4 -3 7 -9 7 -5 0 -10 12 -10 26 0 14 -4 23 -9 19 -10 -5
-21 4 -44 38 -12 17 -13 17 -13 -2 0 -11 4 -17 8 -15 5 3 6 -8 3 -25 -6 -32
10 -44 18 -13 3 10 5 6 6 -11 0 -16 5 -26 10 -23 5 4 6 -4 3 -16 -5 -19 -7
-20 -10 -5 -2 9 -10 17 -18 17 -7 0 -17 12 -20 27 l-7 27 -9 -24 c-6 -16 -5
-26 4 -32 10 -7 9 -8 -2 -5 -8 2 -14 14 -13 26 2 11 -1 21 -6 21 -12 0 -22
-30 -15 -43 5 -9 4 -9 -5 -1 -9 8 -9 18 -1 38 12 34 13 49 1 42 -5 -4 -12 -24
-16 -45 -5 -32 -10 -38 -26 -34 -14 4 -17 9 -10 16 18 18 13 29 -11 25 -13 -2
-22 -9 -20 -16 1 -6 -3 -12 -9 -12 -6 0 -9 -10 -7 -22 2 -16 12 -25 33 -29
l30 -7 -28 -1 c-16 0 -26 -5 -22 -11 3 -5 1 -10 -4 -10 -6 0 -11 9 -11 20 0
11 -5 20 -11 20 -5 0 -7 5 -4 10 3 6 -3 10 -14 10 -10 0 -28 3 -38 6 -15 5
-15 4 -3 -5 10 -7 11 -11 3 -11 -7 0 -13 -7 -13 -16 0 -8 -4 -12 -10 -9 -5 3
-10 15 -10 26 0 10 -7 19 -15 19 -8 0 -15 -8 -15 -18 0 -10 -7 -28 -16 -40
-14 -20 -14 -22 1 -22 9 0 13 -5 10 -10 -4 -6 -12 -7 -18 -3 -7 4 -28 7 -47 8
-38 0 -37 -3 -27 81 4 33 3 41 -3 24 -4 -14 -9 -18 -9 -10 -1 13 -2 13 -11 0
-5 -9 -5 -17 1 -20 10 -7 7 -45 -4 -56 -4 -4 -7 1 -7 10 0 12 -5 16 -15 12
-10 -4 -15 1 -15 16 0 35 -10 14 -12 -25 -1 -34 -3 -36 -31 -30 -22 4 -32 2
-39 -11 -9 -15 -11 -15 -36 3 -20 14 -32 17 -45 10 -24 -14 -13 -27 19 -21 16
3 29 -1 35 -9 15 -23 10 -31 -8 -14 -16 16 -17 16 -29 0 -8 -10 -20 -15 -29
-12 -8 4 -15 3 -15 -2 0 -5 14 -11 30 -13 17 -3 30 -1 30 4 0 5 5 6 11 2 14
-8 -8 -24 -35 -24 -27 0 -56 28 -50 48 4 13 2 12 -10 -3 -8 -11 -20 -25 -26
-32 -5 -7 -10 -16 -10 -20 0 -14 -39 -33 -45 -23 -8 13 -35 13 -35 0 0 -6 8
-13 18 -16 9 -3 25 -10 35 -15 22 -12 38 -2 18 10 -10 6 -8 9 6 13 22 6 43 0
43 -13 0 -4 -7 -6 -15 -3 -8 4 -15 1 -15 -5 0 -5 -10 -15 -21 -22 -13 -7 -19
-7 -15 -1 3 6 1 14 -5 18 -6 3 -14 2 -18 -4 -3 -6 -20 -13 -36 -17 -20 -5 -26
-4 -16 3 11 8 11 10 0 15 -10 4 -9 6 3 6 12 1 15 6 11 17 -5 13 -7 13 -14 2
-7 -10 -9 -8 -10 7 0 14 -2 16 -6 5 -3 -8 -13 -24 -22 -34 -15 -18 -15 -19 2
-13 9 4 17 3 17 -1 0 -11 -58 -60 -65 -54 -3 3 -5 0 -5 -6 0 -7 -4 -12 -10
-12 -5 0 -10 7 -10 15 0 8 9 15 19 15 18 0 31 19 31 43 0 7 -5 4 -11 -5 -5
-10 -14 -18 -19 -18 -6 0 -10 8 -10 18 0 14 2 15 10 2 8 -13 10 -12 10 3 0 9
5 17 10 17 6 0 9 10 9 23 -1 16 -3 17 -6 5 -4 -14 -12 -16 -49 -11 -36 5 -44
3 -44 -10 0 -9 -8 -20 -17 -26 -10 -5 -15 -13 -11 -16 4 -4 14 0 23 9 9 9 21
14 26 11 5 -4 9 1 9 9 0 9 4 16 9 16 5 0 9 -12 9 -26 0 -18 -5 -24 -15 -20
-12 5 -14 -2 -9 -34 6 -45 -4 -52 -24 -15 -21 39 -80 45 -80 8 0 -11 -7 -13
-26 -9 -25 7 -25 6 -10 -10 9 -9 15 -21 13 -27 -2 -7 5 -19 16 -28 21 -17 15
-44 -8 -35 -7 2 -18 -1 -24 -7 -8 -8 -11 -7 -11 5 0 9 6 19 13 22 6 3 -9 4
-35 0 -39 -4 -47 -2 -51 13 -2 10 -4 3 -4 -14 0 -23 4 -30 11 -24 6 5 21 12
34 15 16 5 22 3 22 -8 0 -10 -14 -17 -43 -21 -37 -6 -44 -11 -59 -43 -13 -30
-16 -33 -17 -14 -1 12 5 22 12 22 6 0 4 5 -5 11 -10 5 -18 20 -18 31 0 15 -3
19 -10 12 -7 -7 -8 -19 -1 -37 7 -17 7 -27 1 -27 -6 0 -11 -15 -11 -32 l-1
-33 -7 30 c-4 17 -2 33 3 37 6 4 7 11 2 15 -5 4 -11 2 -13 -5 -3 -6 -8 -10
-11 -8 -4 2 -8 -9 -9 -25 -1 -15 2 -31 7 -34 6 -4 10 -11 10 -16 0 -6 -5 -7
-10 -4 -6 3 -13 -1 -16 -9 -3 -9 -15 -16 -26 -16 -10 0 -16 -4 -13 -10 3 -5 1
-18 -4 -27 -10 -17 -10 -17 -11 0 0 11 -8 17 -25 17 -21 0 -25 -4 -21 -24 5
-28 -19 -43 -40 -25 -11 9 -14 8 -14 -4 0 -8 -7 -18 -16 -21 -8 -3 -12 -11 -8
-17 3 -6 9 -7 13 -3 10 15 31 15 25 0 -3 -8 2 -16 13 -19 16 -4 16 -5 1 -6
-12 -1 -15 -6 -11 -18 4 -11 3 -14 -6 -9 -7 5 -10 15 -7 23 3 8 1 11 -4 8 -6
-3 -10 -16 -11 -28 0 -12 -3 -16 -6 -9 -9 22 -24 12 -17 -12 4 -17 -1 -31 -15
-45 -18 -18 -18 -21 -5 -21 9 0 22 7 29 17 7 9 17 13 24 8 9 -5 4 -11 -14 -21
-15 -8 -33 -14 -40 -14 -7 0 -15 -7 -18 -14 -4 -11 -1 -13 10 -9 11 4 14 2 9
-5 -9 -15 -43 -15 -48 0 -3 7 -9 8 -18 3 -10 -6 -5 -12 21 -21 31 -11 32 -13
9 -14 l-25 -2 25 -8 25 -8 -24 -1 c-13 -1 -30 7 -37 16 -15 22 -27 12 -27 -25
0 -23 -5 -27 -29 -28 -32 -1 -38 15 -8 23 11 3 20 9 20 13 0 16 -12 40 -21 40
-4 0 -6 -7 -3 -15 4 -8 1 -15 -5 -15 -6 0 -11 -7 -11 -15 0 -8 -9 -15 -20 -15
-11 0 -20 -4 -20 -10 0 -5 7 -10 15 -10 8 0 15 -7 15 -17 0 -14 2 -14 20 2 15
14 23 15 33 6 8 -6 17 -8 20 -4 4 3 7 1 7 -5 0 -19 -22 -25 -32 -8 -5 9 -14
14 -19 11 -5 -4 -7 -10 -4 -15 3 -5 -5 -12 -17 -16 -21 -7 -20 -9 12 -15 l35
-6 -37 -2 c-21 0 -38 4 -38 9 0 6 -7 10 -16 10 -14 0 -14 -3 -4 -15 8 -10 30
-15 62 -15 61 0 63 -24 2 -27 -37 -1 -37 -1 -9 7 l30 8 -28 1 c-20 1 -30 -6
-39 -24 -6 -14 -19 -25 -28 -25 -11 0 -20 -10 -22 -23 -4 -20 -1 -23 19 -19
14 3 26 14 29 28 4 17 13 24 28 23 18 -1 18 -2 3 -6 -11 -3 -16 -11 -13 -19 3
-8 -1 -17 -9 -20 -8 -4 -15 -10 -15 -15 0 -5 490 -9 1130 -9 l1130 0 0 600
c-1 461 -4 600 -13 600 -9 0 -9 2 -1 8 14 8 16 62 3 62 -5 0 -9 10 -9 23 0 12
-5 29 -11 37 -8 12 -9 11 -6 -5z m27 -91 c0 -3 -6 -12 -14 -20 -16 -16 -40
-19 -31 -4 3 6 0 10 -7 11 -7 1 -2 5 12 9 33 10 40 11 40 4z m-180 -49 c0 -8
-4 -15 -10 -15 -5 0 -10 7 -10 15 0 8 5 15 10 15 6 0 10 -7 10 -15z m90 5 c0
-5 -4 -10 -9 -10 -6 0 -13 5 -16 10 -3 6 1 10 9 10 9 0 16 -4 16 -10z m70 -10
c0 -6 -11 -8 -27 -4 -40 10 -41 14 -5 14 18 0 32 -5 32 -10z m-280 -10 c0 -5
-4 -10 -10 -10 -5 0 -10 5 -10 10 0 6 5 10 10 10 6 0 10 -4 10 -10z m166 -16
c-11 -8 -25 -14 -30 -13 -6 0 -1 5 12 11 12 6 22 16 22 21 0 6 3 7 7 3 5 -4
-1 -14 -11 -22z m-196 -4 c0 -5 -4 -10 -10 -10 -5 0 -10 -7 -10 -17 0 -9 -3
-14 -6 -10 -8 8 5 47 17 47 5 0 9 -4 9 -10z m120 -13 c11 -5 9 -6 -4 -4 -11 1
-21 9 -23 17 -3 10 -2 11 4 4 4 -6 15 -14 23 -17z m-443 7 c-3 -3 -12 -4 -19
-1 -8 3 -5 6 6 6 11 1 17 -2 13 -5z m384 -12 c-7 -2 -18 1 -23 6 -8 8 -4 9 13
5 13 -4 18 -8 10 -11z m-455 -29 c-5 -5 -11 -2 -13 5 -6 17 -23 15 -23 -3 0
-8 -4 -15 -9 -15 -5 0 -8 -7 -7 -16 0 -9 -5 -19 -13 -22 -10 -3 -11 0 -5 9 4
8 9 22 9 33 1 10 10 25 20 33 16 11 21 11 34 -2 8 -8 11 -18 7 -22z m178 12
c-4 -8 -13 -15 -22 -15 -13 0 -12 3 4 15 24 18 25 18 18 0z m436 5 c0 -5 -2
-10 -4 -10 -3 0 -8 5 -11 10 -3 6 -1 10 4 10 6 0 11 -4 11 -10z m-348 -42 c-6
-6 -7 0 -4 19 5 21 7 23 10 9 2 -10 0 -22 -6 -28z m61 22 c3 -11 1 -23 -4 -26
-5 -3 -9 -1 -9 5 0 5 -3 16 -6 25 -3 9 -2 16 4 16 5 0 12 -9 15 -20z m134 4
c-3 -3 -12 -4 -19 -1 -8 3 -5 6 6 6 11 1 17 -2 13 -5z m-696 -29 c5 4 9 2 9
-3 0 -9 -30 -26 -35 -20 -1 2 -6 14 -10 28 -7 23 -7 23 9 7 10 -9 22 -15 27
-12z m364 15 c3 -5 1 -10 -4 -10 -6 0 -11 5 -11 10 0 6 2 10 4 10 3 0 8 -4 11
-10z m-105 -25 c7 -9 8 -15 2 -15 -5 0 -12 7 -16 15 -3 8 -4 15 -2 15 2 0 9
-7 16 -15z m-335 -25 c-4 -12 1 -22 12 -29 17 -10 17 -10 0 -11 -10 0 -15 -4
-12 -10 3 -5 2 -10 -2 -10 -5 0 -14 10 -22 21 -10 18 -10 26 0 45 14 27 33 22
24 -6z m395 5 c0 -8 -2 -15 -4 -15 -2 0 -6 7 -10 15 -3 8 -1 15 4 15 6 0 10
-7 10 -15z m-340 -28 c0 -4 -9 -3 -20 3 -11 6 -20 15 -20 20 0 6 9 5 20 -2 11
-7 20 -16 20 -21z m56 -24 c-8 -8 -36 5 -36 17 0 7 6 7 21 0 11 -7 18 -14 15
-17z m-150 -27 c0 -14 -5 -21 -9 -17 -4 4 -5 15 -1 24 9 24 12 21 10 -7z m-96
4 c0 -11 -14 -11 -50 0 -22 7 -21 8 13 9 20 1 37 -3 37 -9z m130 -10 c0 -5 -4
-10 -10 -10 -5 0 -10 5 -10 10 0 6 5 10 10 10 6 0 10 -4 10 -10z m-133 -26
c-3 -3 -12 -4 -19 -1 -8 3 -5 6 6 6 11 1 17 -2 13 -5z m-47 -34 c0 -5 -4 -10
-10 -10 -5 0 -10 5 -10 10 0 6 5 10 10 10 6 0 10 -4 10 -10z m130 0 c0 -5 -2
-10 -4 -10 -3 0 -8 5 -11 10 -3 6 -1 10 4 10 6 0 11 -4 11 -10z m-200 -4 c0
-3 -4 -8 -10 -11 -5 -3 -10 -1 -10 4 0 6 5 11 10 11 6 0 10 -2 10 -4z m-70
-16 c0 -5 -4 -10 -10 -10 -5 0 -10 5 -10 10 0 6 5 10 10 10 6 0 10 -4 10 -10z
m150 -10 c0 -5 -2 -10 -4 -10 -3 0 -8 5 -11 10 -3 6 -1 10 4 10 6 0 11 -4 11
-10z m-340 -9 c0 -12 -20 -25 -27 -18 -7 7 6 27 18 27 5 0 9 -4 9 -9z m250 5
c0 -2 -9 -6 -20 -9 -11 -3 -18 -1 -14 4 5 9 34 13 34 5z m-70 -15 c0 -17 -21
-24 -33 -12 -9 9 -7 10 7 5 13 -5 17 -4 12 4 -4 7 -2 12 3 12 6 0 11 -4 11 -9z
m-142 -24 c2 -9 -3 -17 -10 -17 -8 0 -14 9 -14 20 0 24 20 21 24 -3z m-58 -1
c0 -3 -4 -8 -10 -11 -5 -3 -10 -1 -10 4 0 6 5 11 10 11 6 0 10 -2 10 -4z m137
-12 c-3 -3 -12 -4 -19 -1 -8 3 -5 6 6 6 11 1 17 -2 13 -5z m-114 -21 c-7 -2
-21 -2 -30 0 -10 3 -4 5 12 5 17 0 24 -2 18 -5z m70 0 c-7 -2 -19 -2 -25 0 -7
3 -2 5 12 5 14 0 19 -2 13 -5z m-29 -21 c3 -5 -8 -6 -25 -4 -16 2 -29 6 -29 8
0 8 49 4 54 -4z m62 -19 c-6 -6 -36 9 -36 18 0 5 9 4 20 -3 10 -7 18 -14 16
-15z m-99 1 c-3 -3 -12 -4 -19 -1 -8 3 -5 6 6 6 11 1 17 -2 13 -5z m-127 -49
c-33 -19 -46 -19 -30 0 7 8 22 15 34 15 20 -1 20 -2 -4 -15z m50 8 c0 -5 -5
-15 -10 -23 -8 -12 -10 -11 -10 8 0 12 5 22 10 22 6 0 10 -3 10 -7z m-40 -38
c6 -8 10 -20 7 -27 -3 -7 -6 -4 -6 7 -1 15 -3 17 -10 7 -6 -10 -10 -9 -14 7
-6 24 5 27 23 6z m110 -15 c0 -5 -7 -10 -15 -10 -8 0 -15 5 -15 10 0 6 7 10
15 10 8 0 15 -4 15 -10z m-221 -75 c2 16 5 13 12 -9 4 -17 6 -32 4 -35 -3 -2
-5 1 -5 7 0 7 -7 12 -15 12 -12 0 -15 12 -13 53 l1 52 7 -50 c4 -27 8 -41 9
-30z m38 58 c-12 -3 -16 -10 -12 -24 5 -14 3 -17 -9 -13 -32 12 -14 43 24 42
10 0 9 -2 -3 -5z m47 -22 c3 -5 -6 -11 -21 -14 -26 -5 -26 -4 -8 9 22 17 22
17 29 5z m73 -7 c-3 -3 -12 -4 -19 -1 -8 3 -5 6 6 6 11 1 17 -2 13 -5z m-35
-51 c-11 -28 -11 -28 -9 9 1 21 6 33 11 28 4 -4 4 -21 -2 -37z m-155 15 c-3
-8 -6 -5 -6 6 -1 11 2 17 5 13 3 -3 4 -12 1 -19z m-19 -25 c-2 -10 -12 -19
-23 -21 -18 -3 -19 -2 -2 8 9 6 15 15 12 21 -4 5 -1 9 5 9 6 0 10 -8 8 -17z
m-88 -34 c0 -5 -4 -9 -10 -9 -5 0 -10 7 -10 16 0 8 5 12 10 9 6 -3 10 -10 10
-16z m30 -3 c0 -3 -4 -8 -10 -11 -5 -3 -10 -1 -10 4 0 6 5 11 10 11 6 0 10 -2
10 -4z m30 -21 c-13 -14 -26 -22 -29 -19 -3 3 5 14 18 25 33 27 39 24 11 -6z
m-87 -22 c-5 -13 -2 -15 15 -11 12 4 22 3 22 -2 0 -8 -24 -20 -41 -20 -10 0
-12 33 -2 43 11 11 13 8 6 -10z m60 -43 c-3 -11 -7 -20 -9 -20 -2 0 -4 9 -4
20 0 11 4 20 9 20 5 0 7 -9 4 -20z m37 -10 c0 -5 -5 -10 -11 -10 -5 0 -7 5 -4
10 3 6 8 10 11 10 2 0 4 -4 4 -10z m-100 -14 c0 -3 -4 -8 -10 -11 -5 -3 -10
-1 -10 4 0 6 5 11 10 11 6 0 10 -2 10 -4z m-33 -42 c-2 -2 -15 0 -28 6 -23 10
-23 10 -1 6 15 -3 22 1 23 12 1 14 2 14 6 -1 3 -10 3 -21 0 -23z m123 23 c0
-8 -7 -14 -15 -14 -11 0 -12 4 -4 14 6 7 13 13 15 13 2 0 4 -6 4 -13z m-62
-19 c-4 -12 -48 -19 -48 -8 0 11 8 16 30 17 12 1 20 -3 18 -9z m117 -8 c3 -6
-1 -7 -9 -4 -18 7 -21 14 -7 14 6 0 13 -4 16 -10z m-178 -42 c-3 -8 -6 -5 -6
6 -1 11 2 17 5 13 3 -3 4 -12 1 -19z m63 0 c0 -4 -9 -8 -20 -8 -11 0 -20 4
-20 8 0 4 9 8 20 8 11 0 20 -4 20 -8z m-70 -50 c14 -9 -14 -3 -47 9 -8 3 -13
-3 -13 -13 0 -9 -3 -15 -6 -11 -4 3 -4 13 0 22 6 17 33 14 66 -7z m-75 -49 c4
-6 4 -13 0 -17 -3 -3 -9 -1 -13 5 -4 6 -16 13 -27 16 -16 4 -14 5 7 6 15 0 30
-4 33 -10z m120 -19 c3 -6 -1 -7 -9 -4 -18 7 -21 14 -7 14 6 0 13 -4 16 -10z
m-160 -20 c3 -5 1 -10 -4 -10 -6 0 -11 5 -11 10 0 6 2 10 4 10 3 0 8 -4 11
-10z m75 -57 c0 -26 -16 -12 -18 15 -1 21 0 23 8 12 5 -8 10 -21 10 -27z
m-100 17 c0 -5 -9 -10 -21 -10 -11 0 -17 5 -14 10 3 6 13 10 21 10 8 0 14 -4
14 -10z m7 -26 c-3 -3 -12 -4 -19 -1 -8 3 -5 6 6 6 11 1 17 -2 13 -5z m-26
-41 c-12 -20 -14 -14 -5 12 4 9 9 14 11 11 3 -2 0 -13 -6 -23z m-41 -53 c0 -5
-4 -10 -10 -10 -5 0 -10 5 -10 10 0 6 5 10 10 10 6 0 10 -4 10 -10z"/>
<path d="M10220 1300 c0 -5 5 -10 11 -10 5 0 7 5 4 10 -3 6 -8 10 -11 10 -2 0
-4 -4 -4 -10z"/>
<path d="M10153 1276 c0 -18 3 -24 9 -18 7 7 7 16 0 28 -8 14 -9 13 -9 -10z"/>
<path d="M10178 1293 c7 -3 16 -2 19 1 4 3 -2 6 -13 5 -11 0 -14 -3 -6 -6z"/>
<path d="M10300 1290 c0 -5 5 -10 11 -10 5 0 7 5 4 10 -3 6 -8 10 -11 10 -2 0
-4 -4 -4 -10z"/>
<path d="M9860 1265 c0 -14 13 -30 28 -32 6 -2 12 4 12 13 0 8 -5 12 -11 8 -6
-3 -15 0 -20 7 -5 8 -9 10 -9 4z"/>
<path d="M9910 1262 c0 -12 19 -26 26 -19 2 2 -2 10 -11 17 -9 8 -15 8 -15 2z"/>
<path d="M10270 1260 c0 -5 5 -10 10 -10 6 0 10 5 10 10 0 6 -4 10 -10 10 -5
0 -10 -4 -10 -10z"/>
<path d="M9645 1251 c-6 -11 13 -26 22 -17 4 3 0 6 -8 7 -8 0 -6 4 6 9 16 7
17 9 3 9 -9 1 -19 -3 -23 -8z"/>
<path d="M9800 1253 c0 -5 5 -15 10 -23 8 -12 10 -11 10 8 0 12 -4 22 -10 22
-5 0 -10 -3 -10 -7z"/>
<path d="M9500 1240 c0 -5 5 -10 11 -10 5 0 7 5 4 10 -3 6 -8 10 -11 10 -2 0
-4 -4 -4 -10z"/>
<path d="M10113 1235 c-16 -18 -16 -22 1 -28 9 -4 16 3 19 19 5 27 -2 30 -20
9z"/>
<path d="M9716 1231 c-3 -5 4 -11 16 -14 30 -8 35 -1 9 12 -11 6 -22 7 -25 2z"/>
<path d="M9680 1220 c0 -5 5 -10 10 -10 6 0 10 5 10 10 0 6 -4 10 -10 10 -5 0
-10 -4 -10 -10z"/>
<path d="M9276 1211 c-4 -5 -2 -20 3 -33 8 -21 9 -20 9 10 -1 34 -3 38 -12 23z"/>
<path d="M9368 1213 c7 -3 16 -2 19 1 4 3 -2 6 -13 5 -11 0 -14 -3 -6 -6z"/>
<path d="M9530 1199 c0 -5 5 -7 10 -4 6 3 10 8 10 11 0 2 -4 4 -10 4 -5 0 -10
-5 -10 -11z"/>
<path d="M9600 1199 c0 -5 6 -9 14 -9 8 0 22 -7 30 -16 16 -16 36 -11 36 8 0
6 -3 8 -7 5 -3 -4 -11 -3 -17 2 -17 13 -56 20 -56 10z"/>
<path d="M9560 1185 c0 -8 7 -15 15 -15 8 0 15 7 15 15 0 8 -7 15 -15 15 -8 0
-15 -7 -15 -15z"/>
<path d="M9356 1181 c-4 -5 3 -7 14 -4 23 6 26 13 6 13 -8 0 -17 -4 -20 -9z"/>
<path d="M9474 1164 c-1 -13 2 -24 7 -24 11 0 12 37 2 43 -5 3 -9 -6 -9 -19z"/>
<path d="M9919 1177 c6 -8 7 -18 3 -22 -4 -5 -1 -5 6 -1 18 10 15 36 -4 36
-13 0 -14 -3 -5 -13z"/>
<path d="M9361 1144 c0 -11 3 -14 6 -6 3 7 2 16 -1 19 -3 4 -6 -2 -5 -13z"/>
<path d="M9250 1136 c0 -2 7 -6 15 -10 8 -3 15 -1 15 4 0 6 -7 10 -15 10 -8 0
-15 -2 -15 -4z"/>
<path d="M9489 1123 c-22 -5 -32 -43 -12 -43 8 0 11 5 8 10 -3 6 3 10 13 10
11 0 22 7 26 15 5 15 -3 17 -35 8z"/>
<path d="M9150 1111 c0 -6 5 -13 10 -16 6 -3 10 1 10 9 0 9 -4 16 -10 16 -5 0
-10 -4 -10 -9z"/>
<path d="M9230 1110 c0 -5 7 -10 15 -10 8 0 15 -4 15 -10 0 -5 5 -10 10 -10
16 0 11 27 -6 34 -23 9 -34 7 -34 -4z"/>
<path d="M9080 1094 c0 -6 6 -17 14 -23 11 -9 15 -8 20 4 4 10 2 14 -5 9 -6
-4 -15 0 -20 7 -5 8 -9 9 -9 3z"/>
<path d="M9176 1085 c-3 -8 -1 -15 4 -15 6 0 10 4 10 9 0 5 8 12 18 14 13 4
12 5 -4 6 -12 0 -24 -6 -28 -14z"/>
<path d="M8985 1060 c3 -5 11 -10 16 -10 6 0 7 5 4 10 -3 6 -11 10 -16 10 -6
0 -7 -4 -4 -10z"/>
<path d="M9044 1047 c-4 -7 -4 -9 1 -5 4 4 14 3 22 -3 8 -7 13 -8 13 -1 0 15
-28 23 -36 9z"/>
<path d="M9095 1040 c-3 -5 1 -10 10 -10 9 0 13 5 10 10 -3 6 -8 10 -10 10 -2
0 -7 -4 -10 -10z"/>
<path d="M8950 1019 c0 -5 5 -7 10 -4 6 3 10 8 10 11 0 2 -4 4 -10 4 -5 0 -10
-5 -10 -11z"/>
<path d="M9010 1009 c0 -15 -5 -19 -15 -15 -8 3 -15 1 -15 -4 0 -6 9 -10 20
-10 11 0 20 4 20 9 0 5 3 16 6 25 3 9 1 16 -5 16 -6 0 -11 -9 -11 -21z"/>
<path d="M8881 994 c0 -11 3 -14 6 -6 3 7 2 16 -1 19 -3 4 -6 -2 -5 -13z"/>
<path d="M9090 1000 c0 -5 5 -10 11 -10 5 0 7 5 4 10 -3 6 -8 10 -11 10 -2 0
-4 -4 -4 -10z"/>
<path d="M8950 990 c-9 -6 -10 -10 -3 -10 6 0 15 5 18 10 8 12 4 12 -15 0z"/>
<path d="M9030 990 c0 -6 7 -10 15 -10 8 0 15 2 15 4 0 2 -7 6 -15 10 -8 3
-15 1 -15 -4z"/>
<path d="M8790 924 c0 -8 5 -12 10 -9 6 3 10 10 10 16 0 5 -4 9 -10 9 -5 0
-10 -7 -10 -16z"/>
<path d="M8772 885 c0 -16 2 -22 5 -12 2 9 2 23 0 30 -3 6 -5 -1 -5 -18z"/>
<path d="M8882 880 c0 -14 2 -19 5 -12 2 6 2 18 0 25 -3 6 -5 1 -5 -13z"/>
<path d="M8665 880 c-3 -5 -1 -10 4 -10 6 0 11 5 11 10 0 6 -2 10 -4 10 -3 0
-8 -4 -11 -10z"/>
<path d="M8701 844 c0 -11 3 -14 6 -6 3 7 2 16 -1 19 -3 4 -6 -2 -5 -13z"/>
<path d="M8726 833 c-11 -11 -6 -23 9 -23 8 0 15 4 15 9 0 13 -16 22 -24 14z"/>
<path d="M8640 810 c0 -5 7 -7 15 -4 8 4 15 8 15 10 0 2 -7 4 -15 4 -8 0 -15
-4 -15 -10z"/>
<path d="M8695 801 c-8 -14 10 -22 30 -15 13 5 14 8 3 15 -17 11 -26 11 -33 0z"/>
<path d="M8610 791 c0 -6 4 -13 10 -16 6 -3 7 1 4 9 -7 18 -14 21 -14 7z"/>
<path d="M8536 757 c3 -10 9 -15 12 -12 3 3 0 11 -7 18 -10 9 -11 8 -5 -6z"/>
<path d="M8467 666 c-15 -32 -14 -46 4 -46 4 0 7 8 7 18 -1 9 2 27 6 40 11 33
2 27 -17 -12z"/>
<path d="M8496 684 c-3 -9 -6 -28 -6 -44 0 -19 -6 -30 -17 -33 -13 -3 -11 -6
10 -12 20 -5 33 -3 46 9 18 17 18 18 -7 43 -17 17 -22 28 -14 31 14 4 16 22 3
22 -5 0 -12 -7 -15 -16z m34 -63 c0 -5 -7 -12 -16 -15 -24 -9 -28 -7 -14 9 14
17 30 20 30 6z"/>
<path d="M8527 686 c-3 -8 -2 -18 4 -22 16 -9 22 2 11 21 -8 15 -10 16 -15 1z"/>
<path d="M8430 599 c0 -5 5 -7 10 -4 6 3 10 8 10 11 0 2 -4 4 -10 4 -5 0 -10
-5 -10 -11z"/>
<path d="M8460 580 c0 -5 5 -10 10 -10 6 0 10 5 10 10 0 6 -4 10 -10 10 -5 0
-10 -4 -10 -10z"/>
<path d="M8372 560 c0 -14 2 -19 5 -12 2 6 2 18 0 25 -3 6 -5 1 -5 -13z"/>
<path d="M8416 523 c-6 -14 -5 -15 5 -6 7 7 10 15 7 18 -3 3 -9 -2 -12 -12z"/>
<path d="M8300 509 c0 -5 5 -7 10 -4 6 3 10 8 10 11 0 2 -4 4 -10 4 -5 0 -10
-5 -10 -11z"/>
<path d="M8330 489 c0 -5 5 -7 10 -4 6 3 10 8 10 11 0 2 -4 4 -10 4 -5 0 -10
-5 -10 -11z"/>
<path d="M8300 469 c0 -5 5 -7 10 -4 6 3 10 8 10 11 0 2 -4 4 -10 4 -5 0 -10
-5 -10 -11z"/>
<path d="M8330 450 c0 -5 5 -10 10 -10 6 0 10 5 10 10 0 6 -4 10 -10 10 -5 0
-10 -4 -10 -10z"/>
<path d="M8280 430 c0 -5 5 -10 11 -10 5 0 7 5 4 10 -3 6 -8 10 -11 10 -2 0
-4 -4 -4 -10z"/>
<path d="M8310 426 c0 -8 5 -18 11 -22 6 -3 8 -17 5 -30 -4 -14 -2 -24 4 -24
19 0 15 56 -6 77 -12 13 -14 12 -14 -1z"/>
<path d="M8225 400 c3 -5 8 -10 11 -10 2 0 4 5 4 10 0 6 -5 10 -11 10 -5 0 -7
-4 -4 -10z"/>
<path d="M8275 400 c-3 -5 1 -10 9 -10 9 0 16 -4 16 -10 0 -5 5 -10 10 -10 6
0 5 8 -2 20 -14 22 -24 25 -33 10z"/>
<path d="M8218 359 c12 -7 22 -16 22 -21 0 -4 7 -8 15 -8 21 0 19 17 -2 23
-10 2 -27 8 -38 11 -15 5 -15 4 3 -5z"/>
<path d="M8260 360 c8 -5 24 -9 35 -9 l20 0 -20 9 c-11 5 -27 9 -35 9 -13 1
-13 0 0 -9z"/>
<path d="M8287 333 c-12 -11 -8 -23 8 -23 8 0 15 7 15 15 0 16 -12 20 -23 8z"/>
<path d="M8151 284 c0 -11 3 -14 6 -6 3 7 2 16 -1 19 -3 4 -6 -2 -5 -13z"/>
<path d="M8225 279 c-11 -16 -1 -19 13 -3 7 8 8 14 3 14 -5 0 -13 -5 -16 -11z"/>
<path d="M8080 189 c0 -5 5 -7 10 -4 6 3 10 8 10 11 0 2 -4 4 -10 4 -5 0 -10
-5 -10 -11z"/>
<path d="M8035 160 c3 -5 8 -10 11 -10 2 0 4 5 4 10 0 6 -5 10 -11 10 -5 0 -7
-4 -4 -10z"/>
<path d="M8121 104 c0 -11 3 -14 6 -6 3 7 2 16 -1 19 -3 4 -6 -2 -5 -13z"/>
<path d="M8060 60 c0 -5 5 -10 11 -10 5 0 7 -6 3 -12 -5 -10 -4 -10 6 -1 7 6
9 16 6 22 -9 14 -26 14 -26 1z"/>
<path d="M8007 39 c7 -7 15 -10 18 -7 3 3 -2 9 -12 12 -14 6 -15 5 -6 -5z"/>
<path d="M7970 10 c0 -5 5 -10 11 -10 5 0 7 5 4 10 -3 6 -8 10 -11 10 -2 0 -4
-4 -4 -10z"/>
<path d="M8000 10 c0 -5 5 -10 11 -10 5 0 7 5 4 10 -3 6 -8 10 -11 10 -2 0 -4
-4 -4 -10z"/>
<path d="M8035 10 c3 -5 11 -10 16 -10 6 0 7 5 4 10 -3 6 -11 10 -16 10 -6 0
-7 -4 -4 -10z"/>
</g>
</svg>
