<?xml version="1.0" standalone="no"?>
<!DOCTYPE svg PUBLIC "-//W3C//DTD SVG 20010904//EN"
 "http://www.w3.org/TR/2001/REC-SVG-20010904/DTD/svg10.dtd">
<svg version="1.0" xmlns="http://www.w3.org/2000/svg"
 width="318.000000pt" height="318.000000pt" viewBox="0 0 318.000000 318.000000"
 preserveAspectRatio="xMidYMid meet">

<g transform="translate(0.000000,318.000000) scale(0.100000,-0.100000)"
fill="#000000" stroke="none">
<path d="M2345 3170 c3 -5 8 -10 11 -10 2 0 4 5 4 10 0 6 -5 10 -11 10 -5 0
-7 -4 -4 -10z"/>
<path d="M2371 3164 c-8 -10 -22 -13 -38 -9 -21 5 -23 4 -14 -14 15 -26 14
-31 -5 -31 -8 0 -12 5 -9 10 3 6 1 10 -4 10 -6 0 -11 -8 -11 -17 0 -15 -2 -16
-9 -4 -8 12 -11 8 -16 -15 -4 -16 -11 -40 -15 -54 -7 -20 -9 -21 -9 -5 -1 15
-4 16 -13 7 -18 -18 -26 -14 -21 12 6 29 -10 41 -27 21 -11 -13 -10 -14 4 -9
9 3 16 1 16 -5 0 -6 -7 -11 -15 -11 -19 0 -19 -9 -1 -24 9 -7 11 -18 6 -31 -8
-18 -9 -18 -9 5 -1 18 -4 21 -10 11 -7 -11 -10 -9 -16 8 -7 22 -7 22 -28 4
-11 -10 -17 -12 -13 -6 5 9 2 11 -8 7 -23 -9 -28 -35 -10 -49 14 -10 15 -13 3
-20 -8 -5 -11 -5 -7 0 7 8 -19 34 -34 35 -14 0 -9 -23 9 -42 9 -10 13 -21 10
-25 -4 -4 -13 2 -21 12 -7 10 -18 15 -24 11 -7 -4 -12 -2 -12 3 0 6 -5 11 -11
11 -6 0 -8 -7 -5 -16 4 -12 2 -15 -9 -10 -9 3 -15 0 -15 -8 0 -8 10 -12 26
-10 20 2 23 0 14 -11 -14 -17 -50 -7 -51 14 0 12 -2 11 -9 -4 -6 -15 -9 -16
-9 -4 -1 20 -31 21 -31 1 0 -12 -3 -12 -15 -2 -8 7 -12 16 -9 21 3 5 0 9 -5 9
-15 0 -14 -13 2 -29 10 -11 9 -13 -5 -8 -11 4 -21 0 -27 -11 -6 -10 -11 -12
-11 -4 0 6 -4 12 -10 12 -5 0 -7 -7 -4 -15 4 -9 0 -15 -10 -15 -9 0 -16 -4
-16 -10 0 -5 5 -10 10 -10 6 0 10 -4 10 -8 0 -4 -16 -7 -35 -7 -29 1 -35 -1
-30 -14 5 -12 3 -13 -5 -5 -6 6 -8 18 -4 27 7 19 24 23 24 6 0 -5 5 -7 11 -3
16 10 -12 25 -33 18 -13 -4 -18 0 -18 15 0 23 -35 30 -43 9 -4 -10 -8 -9 -16
2 -9 12 -11 10 -9 -10 3 -20 -1 -25 -19 -23 -11 1 -24 -4 -27 -12 -9 -24 39
-18 56 6 13 20 14 20 13 -12 -2 -62 -4 -69 -19 -63 -8 3 -12 12 -9 20 3 9 -2
14 -13 15 -11 0 -36 1 -56 3 -21 2 -38 -1 -38 -6 0 -4 8 -8 18 -9 14 0 14 -2
-3 -8 -12 -5 -21 -4 -24 3 -2 6 -8 17 -14 24 -8 11 -12 11 -18 0 -7 -10 -9
-10 -9 0 0 8 -9 10 -27 6 -53 -11 -55 -12 -44 -32 9 -17 7 -18 -14 -14 -27 5
-33 17 -12 25 7 3 5 6 -5 6 -10 1 -18 8 -18 16 0 8 -8 15 -17 15 -11 0 -14 -3
-7 -8 6 -4 13 -21 16 -39 4 -29 3 -31 -20 -22 -13 5 -28 6 -34 3 -6 -4 -20 4
-30 17 l-20 24 5 -23 c3 -13 1 -20 -5 -16 -6 4 -8 -2 -3 -17 5 -19 4 -21 -4
-9 -6 8 -11 25 -11 38 0 31 -42 48 -52 21 -4 -11 -5 -26 -2 -34 4 -10 0 -15
-16 -15 -11 0 -18 5 -15 10 4 6 -8 10 -29 10 -26 0 -36 4 -36 16 0 9 -5 12
-12 8 -8 -5 -9 0 -5 15 3 15 1 21 -6 18 -13 -4 -10 -40 3 -45 18 -7 -3 -42
-25 -42 -23 0 -40 24 -29 41 3 5 0 9 -5 9 -6 0 -11 -9 -11 -20 0 -14 -6 -20
-22 -19 -22 0 -22 1 -3 9 l20 9 -20 0 c-12 1 -16 4 -9 9 7 5 6 15 -3 32 -12
24 -13 24 -13 3 0 -12 -5 -25 -12 -29 -6 -4 -8 -3 -5 3 6 9 -12 23 -29 23 -7
0 1 -25 11 -32 6 -4 -2 -8 -17 -8 -31 0 -33 3 -18 30 8 15 6 21 -10 30 -13 7
-20 7 -20 0 0 -5 4 -10 9 -10 5 0 7 -8 4 -18 -5 -20 -56 -46 -75 -39 -7 3 -2
6 12 6 20 1 22 3 10 12 -11 8 -12 12 -2 16 17 7 15 24 -3 17 -8 -4 -15 -12
-15 -20 0 -8 -8 -14 -17 -14 -14 0 -15 2 -5 9 10 6 9 10 -7 14 -16 4 -21 0
-21 -14 0 -10 -4 -19 -10 -19 -5 0 -10 8 -10 19 0 10 -9 21 -20 24 -15 4 -20
0 -21 -16 0 -12 -5 -31 -10 -42 -8 -17 -9 -17 -5 5 3 14 1 31 -3 38 -6 10 -10
4 -14 -17 -4 -17 -12 -31 -18 -31 -8 0 -8 4 -1 13 7 8 6 16 -4 25 -8 7 -14 8
-14 2 0 -5 -7 -10 -15 -10 -8 0 -15 5 -15 10 0 6 -4 10 -10 10 -5 0 -10 -16
-10 -36 0 -29 -3 -35 -16 -30 -9 3 -18 6 -20 6 -2 0 -4 11 -4 25 0 14 4 25 10
25 5 0 7 -7 4 -15 -4 -8 -1 -15 5 -15 6 0 11 9 11 20 0 11 -7 20 -15 20 -8 0
-15 4 -15 9 0 6 16 7 34 4 45 -7 96 5 76 17 -9 5 -19 5 -27 -2 -10 -8 -13 -7
-13 3 0 12 -2 12 -9 0 -6 -9 -18 -11 -40 -6 -27 6 -31 4 -31 -13 0 -11 -7 -22
-15 -26 -10 -4 -15 1 -15 15 0 11 -4 17 -10 14 -6 -4 -17 -1 -25 5 -13 10 -15
8 -15 -15 0 -21 -4 -26 -16 -21 -9 4 -24 1 -32 -6 -11 -9 -14 -9 -9 -1 4 6 3
14 -2 17 -5 4 -12 2 -16 -4 -11 -18 -26 0 -20 23 5 17 4 19 -4 7 -6 -9 -26
-15 -50 -15 -23 0 -41 -3 -41 -7 0 -5 8 -8 17 -8 12 0 14 -3 7 -10 -15 -15
-44 -1 -44 21 0 10 -4 19 -9 19 -13 0 -8 -33 7 -45 10 -8 9 -11 -7 -12 -11 -1
-20 3 -18 9 1 6 -4 13 -10 15 -7 3 -13 -2 -13 -10 0 -10 -7 -13 -20 -10 -11 3
-20 14 -20 24 0 24 -8 24 -45 -1 -25 -17 -27 -20 -10 -21 11 0 14 -3 7 -6 -7
-3 -19 0 -26 6 -7 6 -27 8 -44 5 l-32 -6 0 -1389 0 -1389 1590 0 1590 0 0
1590 0 1590 -385 0 c-212 -1 -384 -4 -384 -8 3 -18 -2 -32 -12 -32 -6 0 -8 9
-4 20 7 24 -4 26 -24 4z m36 -56 c-3 -8 -6 -5 -6 6 -1 11 2 17 5 13 3 -3 4
-12 1 -19z m-130 -30 c-3 -8 -6 -5 -6 6 -1 11 2 17 5 13 3 -3 4 -12 1 -19z
m43 18 c0 -2 3 -11 6 -20 3 -9 1 -16 -5 -16 -6 0 -10 6 -8 13 1 6 -4 11 -10
10 -7 -2 -13 2 -13 7 0 6 7 10 15 10 8 0 15 -2 15 -4z m-30 -61 c0 -8 -2 -15
-4 -15 -2 0 -6 7 -10 15 -3 8 -1 15 4 15 6 0 10 -7 10 -15z m-113 -87 c-3 -8
-6 -5 -6 6 -1 11 2 17 5 13 3 -3 4 -12 1 -19z m-237 -58 c0 -13 -7 -20 -20
-20 -19 0 -19 1 -2 19 22 25 22 25 22 1z m-216 -35 c-7 -18 -8 -18 -14 1 -9
23 -1 39 11 27 6 -6 6 -18 3 -28z m233 10 c-4 -8 -12 -15 -19 -14 -10 0 -10 2
0 6 6 2 12 12 12 21 0 8 3 13 6 9 4 -3 4 -13 1 -22z m-82 -5 c-3 -5 -14 -10
-23 -10 -15 0 -15 2 -2 10 20 13 33 13 25 0z m22 -22 c-3 -8 -6 -5 -6 6 -1 11
2 17 5 13 3 -3 4 -12 1 -19z m-1169 -55 c1 -22 0 -24 -8 -13 -12 18 -13 40 -2
40 4 0 9 -12 10 -27z m519 -32 c-3 -9 -5 -5 -6 9 -1 20 -3 22 -11 10 -8 -12
-10 -11 -10 6 0 11 3 24 7 28 9 9 25 -33 20 -53z m252 32 c0 -27 -1 -27 -11
-6 -6 12 -20 24 -32 26 -14 3 -10 5 12 6 29 1 32 -2 31 -26z m318 21 c-3 -3
-12 -4 -19 -1 -8 3 -5 6 6 6 11 1 17 -2 13 -5z m83 2 c0 -3 -4 -8 -10 -11 -5
-3 -10 -1 -10 4 0 6 5 11 10 11 6 0 10 -2 10 -4z m-1557 -20 c10 -24 -54 -58
-68 -36 -4 6 4 10 19 10 19 0 26 5 26 20 0 23 15 27 23 6z m1181 -2 c3 -8 2
-12 -4 -9 -6 3 -10 10 -10 16 0 14 7 11 14 -7z m-997 -16 c-3 -8 -6 -5 -6 6
-1 11 2 17 5 13 3 -3 4 -12 1 -19z m1108 12 c3 -5 -3 -10 -15 -10 -12 0 -18 5
-15 10 3 6 10 10 15 10 5 0 12 -4 15 -10z m-1161 -15 c7 -20 24 -19 29 3 4 13
5 11 6 -5 1 -17 -5 -23 -19 -23 -11 0 -20 4 -20 8 0 5 -10 14 -22 20 -23 11
-23 11 -2 11 12 1 24 -6 28 -14z m496 5 c0 -5 -2 -10 -4 -10 -3 0 -8 5 -11 10
-3 6 -1 10 4 10 6 0 11 -4 11 -10z m-920 -10 c0 -5 -4 -10 -9 -10 -6 0 -13 5
-16 10 -3 6 1 10 9 10 9 0 16 -4 16 -10z m880 6 c0 -11 -19 -15 -25 -6 -3 5 1
10 9 10 9 0 16 -2 16 -4z m545 -5 c3 -5 1 -12 -5 -16 -5 -3 -10 1 -10 9 0 18
6 21 15 7z m-1338 -7 c-3 -3 -12 -4 -19 -1 -8 3 -5 6 6 6 11 1 17 -2 13 -5z
m1063 -41 c-11 -17 -11 -17 -6 0 3 10 6 24 7 30 0 9 2 9 5 0 3 -7 0 -20 -6
-30z m180 33 c0 -3 -4 -8 -10 -11 -5 -3 -10 -1 -10 4 0 6 5 11 10 11 6 0 10
-2 10 -4z m-1340 -16 c0 -5 -4 -10 -10 -10 -5 0 -10 5 -10 10 0 6 5 10 10 10
6 0 10 -4 10 -10z"/>
<path d="M2271 3154 c0 -11 3 -14 6 -6 3 7 2 16 -1 19 -3 4 -6 -2 -5 -13z"/>
<path d="M2148 3089 c-19 -11 -24 -29 -8 -29 5 0 14 9 20 20 12 23 12 23 -12
9z"/>
<path d="M1980 2980 c0 -5 5 -10 11 -10 5 0 7 5 4 10 -3 6 -8 10 -11 10 -2 0
-4 -4 -4 -10z"/>
<path d="M1950 2960 c0 -5 5 -10 11 -10 5 0 7 5 4 10 -3 6 -8 10 -11 10 -2 0
-4 -4 -4 -10z"/>
<path d="M1846 2935 c-3 -9 0 -15 9 -15 9 0 12 6 9 15 -4 8 -7 15 -9 15 -2 0
-5 -7 -9 -15z"/>
<path d="M1750 2910 c0 -13 18 -22 24 -11 3 5 -1 11 -9 15 -8 3 -15 1 -15 -4z"/>
<path d="M189 2881 c11 -7 11 -9 0 -14 -8 -3 -4 -6 9 -6 25 -1 30 14 6 23 -23
9 -31 7 -15 -3z"/>
<path d="M1415 2880 c-3 -5 -1 -10 4 -10 6 0 11 5 11 10 0 6 -2 10 -4 10 -3 0
-8 -4 -11 -10z"/>
<path d="M1790 2880 c0 -5 5 -10 10 -10 6 0 10 5 10 10 0 6 -4 10 -10 10 -5 0
-10 -4 -10 -10z"/>
<path d="M775 2860 c-3 -6 1 -7 9 -4 18 7 21 14 7 14 -6 0 -13 -4 -16 -10z"/>
<path d="M276 2844 c-5 -14 -4 -15 9 -4 17 14 19 20 6 20 -5 0 -12 -7 -15 -16z"/>
<path d="M404 2844 c3 -9 6 -18 6 -20 0 -2 5 -4 11 -4 8 0 9 4 0 13 -6 8 -8
17 -4 20 3 4 1 7 -6 7 -8 0 -11 -6 -7 -16z"/>
<path d="M512 2830 c0 -14 2 -19 5 -12 2 6 2 18 0 25 -3 6 -5 1 -5 -13z"/>
<path d="M1498 2843 c6 -2 18 -2 25 0 6 3 1 5 -13 5 -14 0 -19 -2 -12 -5z"/>
<path d="M1540 2840 c0 -5 5 -10 10 -10 6 0 10 5 10 10 0 6 -4 10 -10 10 -5 0
-10 -4 -10 -10z"/>
<path d="M1585 2840 c-3 -5 -2 -10 4 -10 5 0 13 5 16 10 3 6 2 10 -4 10 -5 0
-13 -4 -16 -10z"/>
<path d="M1171 2828 c0 -10 -9 -18 -18 -18 -17 -1 -17 -1 0 -11 23 -14 30 -7
24 23 -3 14 -5 16 -6 6z"/>
<path d="M167 2823 c-11 -10 -8 -33 4 -33 5 0 7 5 4 10 -3 6 -1 10 4 10 6 0
11 5 11 10 0 11 -13 13 -23 3z"/>
<path d="M1300 2810 c0 -5 5 -10 10 -10 6 0 10 5 10 10 0 6 -4 10 -10 10 -5 0
-10 -4 -10 -10z"/>
<path d="M1346 2799 c20 -23 24 -23 24 -5 0 7 -9 16 -21 19 -20 5 -20 5 -3
-14z"/>
<path d="M1046 2785 c-3 -9 0 -15 9 -15 9 0 12 6 9 15 -4 8 -7 15 -9 15 -2 0
-5 -7 -9 -15z"/>
</g>
</svg>
