<?xml version="1.0" standalone="no"?>
<!DOCTYPE svg PUBLIC "-//W3C//DTD SVG 20010904//EN"
 "http://www.w3.org/TR/2001/REC-SVG-20010904/DTD/svg10.dtd">
<svg version="1.0" xmlns="http://www.w3.org/2000/svg"
 width="219.000000pt" height="219.000000pt" viewBox="0 0 219.000000 219.000000"
 preserveAspectRatio="xMidYMid meet">

<g transform="translate(0.000000,219.000000) scale(0.100000,-0.100000)"
fill="#000000" stroke="none">
<path d="M30 1500 c0 -5 5 -10 10 -10 6 0 10 5 10 10 0 6 -4 10 -10 10 -5 0
-10 -4 -10 -10z"/>
<path d="M73 1503 c4 -6 -6 -16 -21 -22 -18 -9 -28 -9 -30 -2 -17 51 -21 -84
-22 -734 l0 -745 1095 0 1096 0 -1 500 c-1 275 -4 500 -9 500 -4 0 -12 -5 -19
-12 -7 -7 -12 -8 -12 -3 0 14 -54 15 -63 2 -4 -7 -6 1 -5 17 2 19 -2 30 -12
33 -12 4 -13 3 -1 -5 17 -12 6 -32 -17 -31 -10 0 -12 3 -5 5 7 3 9 12 7 19 -8
20 -33 -4 -27 -25 4 -13 3 -13 -5 -1 -6 8 -24 14 -41 14 -17 0 -31 4 -31 9 0
4 5 8 10 8 6 0 10 5 10 12 0 6 -8 4 -19 -6 -12 -11 -25 -15 -33 -10 -7 5 -21
7 -32 5 -10 -1 -23 3 -27 11 -7 10 -9 10 -9 1 0 -7 -7 -13 -15 -13 -8 0 -15 5
-15 10 0 6 5 10 10 10 6 0 10 5 10 10 0 7 -6 7 -20 0 -12 -6 -20 -7 -20 -1 0
5 5 11 10 13 6 2 -5 8 -24 14 -33 10 -34 10 -32 -18 3 -38 -10 -35 -19 5 -5
22 -9 27 -13 16 -6 -12 -13 -13 -45 -4 -29 8 -35 13 -25 23 9 9 9 12 -3 12 -8
0 -20 -5 -27 -12 -9 -9 -15 -9 -24 0 -10 10 -10 15 1 21 9 6 10 11 2 15 -6 4
-11 2 -11 -3 0 -6 -6 -11 -13 -11 -8 0 -13 -10 -13 -22 1 -17 -5 -23 -22 -24
-20 -2 -20 -1 -2 3 12 2 19 10 17 16 -3 7 -11 10 -18 8 -8 -2 -29 -3 -48 -2
-19 1 -38 -4 -42 -10 -4 -7 -6 -1 -6 14 2 28 22 37 30 15 2 -7 8 -10 12 -6 10
10 -17 36 -33 30 -7 -2 -17 -15 -22 -28 -9 -24 -30 -33 -30 -14 0 6 5 10 11
10 6 0 9 6 6 14 -3 8 -1 17 6 19 7 2 8 8 4 13 -5 5 -13 1 -18 -9 -6 -9 -15
-17 -20 -17 -6 0 -7 5 -4 10 7 11 -23 9 -42 -3 -8 -5 -13 -3 -13 3 0 7 -6 8
-19 1 -24 -13 -34 -3 -15 16 8 9 12 18 8 22 -4 3 -9 0 -11 -6 -8 -21 -40 -15
-47 10 -6 17 -9 19 -14 7 -9 -19 -34 -19 -56 -1 -14 11 -16 11 -16 -3 0 -28
-20 -17 -21 12 0 15 -3 22 -5 15 -6 -13 -35 -6 -45 10 -9 12 -31 -1 -24 -14 9
-14 -9 -11 -31 6 -26 19 -35 19 -27 -2 6 -16 5 -16 -10 -4 -22 17 -22 28 1 34
9 3 -3 3 -28 1 -41 -3 -43 -2 -26 11 24 18 18 25 -11 14 -15 -5 -21 -14 -17
-24 5 -11 0 -15 -17 -14 -13 0 -18 3 -11 6 17 7 15 23 -3 23 -8 0 -19 10 -26
21 -9 17 -13 19 -20 8 -9 -15 -10 -14 -28 16 -12 19 -12 19 -8 -2 3 -13 1 -26
-4 -29 -5 -3 -9 2 -9 10 0 9 -4 16 -9 16 -5 0 -11 6 -14 13 -2 6 -2 2 0 -10 2
-16 -1 -21 -11 -17 -9 3 -12 13 -8 27 5 21 5 21 -12 5 -14 -14 -21 -15 -35 -6
-15 9 -22 8 -36 -5 -11 -12 -25 -15 -43 -11 -39 10 -42 17 -5 12 24 -3 33 0
36 14 4 15 -1 18 -39 18 -32 0 -44 4 -44 15 0 16 -6 18 -55 17 -46 0 -48 -1
-42 -21 3 -14 1 -18 -9 -14 -8 3 -12 8 -10 12 2 3 -1 14 -8 23 -16 21 -72 29
-68 9 2 -9 -3 -11 -14 -7 -10 4 -22 -1 -30 -11 -13 -17 -13 -17 -14 0 0 9 -4
17 -9 17 -18 0 -21 33 -6 56 9 13 11 24 6 24 -5 0 -15 -13 -22 -29 -10 -23
-16 -27 -26 -19 -10 8 -13 5 -13 -11 0 -11 -5 -21 -11 -21 -7 0 -9 10 -7 25 4
17 1 25 -9 25 -7 0 -16 7 -20 16 -5 13 -7 13 -14 2 -7 -11 -11 -10 -20 2 -8
12 -9 8 -4 -15 6 -30 6 -30 -10 -7 -13 17 -26 22 -63 22 l-47 0 24 19 c18 14
21 20 11 26 -8 5 -11 4 -7 -2z m31 -70 c-11 -8 -24 -9 -45 -1 -16 5 -29 11
-29 13 0 2 20 3 45 2 37 -2 43 -4 29 -14z m36 -23 c0 -5 -7 -10 -16 -10 -8 0
-12 5 -9 10 3 6 10 10 16 10 5 0 9 -4 9 -10z m280 -30 c0 -4 -7 -13 -15 -20
-12 -10 -15 -9 -15 7 0 11 7 20 15 20 8 0 15 -4 15 -7z m140 -14 c0 -2 -3 -11
-6 -20 -8 -20 -24 -21 -24 -2 0 8 -8 17 -17 19 -10 3 -3 5 15 6 17 0 32 -1 32
-3z m400 -140 c0 -9 -7 -12 -20 -9 -11 3 -17 9 -14 14 8 14 34 10 34 -5z m161
-69 c-10 -9 -11 -8 -5 6 3 10 9 15 12 12 3 -3 0 -11 -7 -18z m549 -92 c-7 -8
-22 -15 -34 -14 -18 0 -16 3 9 14 39 18 40 18 25 0z m116 -3 c1 -7 0 -8 -3 -2
-2 5 -9 8 -14 4 -5 -3 -9 0 -9 6 0 15 23 7 26 -8z m-1 -32 c-3 -5 -12 -10 -18
-10 -7 0 -6 4 3 10 19 12 23 12 15 0z m195 -40 c-8 -5 -22 -9 -30 -9 -10 0 -8
3 5 9 27 12 43 12 25 0z"/>
<path d="M108 1473 c7 -3 16 -2 19 1 4 3 -2 6 -13 5 -11 0 -14 -3 -6 -6z"/>
<path d="M335 1440 c-3 -5 1 -10 10 -10 9 0 13 5 10 10 -3 6 -8 10 -10 10 -2
0 -7 -4 -10 -10z"/>
<path d="M310 1416 c0 -21 20 -30 33 -17 9 9 8 14 -3 21 -21 14 -30 12 -30 -4z"/>
<path d="M618 1363 c7 -3 16 -2 19 1 4 3 -2 6 -13 5 -11 0 -14 -3 -6 -6z"/>
<path d="M886 1295 c-3 -8 -1 -15 3 -15 5 0 11 7 15 15 3 8 1 15 -3 15 -5 0
-11 -7 -15 -15z"/>
<path d="M1225 1230 c-3 -6 1 -7 9 -4 9 3 16 1 16 -5 0 -6 5 -11 11 -11 8 0 8
5 -1 15 -14 17 -26 19 -35 5z"/>
<path d="M1338 1173 c7 -3 16 -2 19 1 4 3 -2 6 -13 5 -11 0 -14 -3 -6 -6z"/>
<path d="M1870 1059 c0 -5 5 -7 10 -4 6 3 10 8 10 11 0 2 -4 4 -10 4 -5 0 -10
-5 -10 -11z"/>
</g>
</svg>
