<?xml version="1.0" standalone="no"?>
<!DOCTYPE svg PUBLIC "-//W3C//DTD SVG 20010904//EN"
 "http://www.w3.org/TR/2001/REC-SVG-20010904/DTD/svg10.dtd">
<svg version="1.0" xmlns="http://www.w3.org/2000/svg"
 width="219.000000pt" height="219.000000pt" viewBox="0 0 219.000000 219.000000"
 preserveAspectRatio="xMidYMid meet">

<g transform="translate(0.000000,219.000000) scale(0.100000,-0.100000)"
fill="#000000" stroke="none">
<path d="M930 2175 c0 -8 5 -15 10 -15 6 0 10 7 10 15 0 8 -4 15 -10 15 -5 0
-10 -7 -10 -15z"/>
<path d="M982 2170 c0 -14 2 -19 5 -12 2 6 2 18 0 25 -3 6 -5 1 -5 -13z"/>
<path d="M1010 2153 c0 -38 -2 -39 -35 -17 -14 9 -26 12 -26 8 -1 -5 -2 -16
-3 -24 0 -8 -10 -16 -21 -17 l-20 -3 20 9 c18 9 17 10 -9 10 -21 1 -27 -3 -22
-14 3 -8 1 -15 -4 -15 -6 0 -10 9 -10 20 0 29 -21 20 -53 -22 -29 -38 -62 -53
-50 -22 5 13 2 15 -18 9 -13 -4 -27 -12 -30 -17 -3 -5 -14 -5 -24 -2 -15 6
-17 4 -12 -9 5 -14 1 -17 -23 -15 -17 1 -30 6 -30 10 0 4 4 8 9 8 5 0 11 9 14
20 8 31 -6 24 -21 -10 -8 -18 -11 -42 -7 -60 9 -40 -2 -38 -14 3 -8 29 -9 29
-10 7 l-2 -25 -14 25 c-13 23 -14 23 -15 5 0 -12 5 -26 12 -33 15 -15 7 -24
-11 -13 -7 5 -14 20 -14 34 -3 35 -17 23 -17 -14 0 -34 -22 -39 -52 -12 -19
17 -19 16 -14 -12 6 -30 6 -30 -4 -4 -8 20 -16 26 -32 21 -18 -4 -19 -3 -9 16
15 29 14 36 -4 18 -8 -8 -15 -19 -15 -25 0 -6 -6 -11 -14 -11 -8 0 -18 -5 -22
-12 -5 -8 -2 -9 9 -5 19 7 24 -17 7 -28 -5 -3 -10 -1 -10 6 0 8 -7 6 -19 -5
-11 -10 -24 -15 -29 -12 -6 3 -13 -1 -16 -10 -11 -29 -15 -10 -7 29 10 43 5
49 -9 11 l-10 -27 -20 23 c-25 28 -25 22 -3 -30 11 -24 23 -38 30 -35 7 2 13
0 13 -6 0 -5 -18 -8 -40 -7 -22 2 -40 6 -40 9 0 4 -14 12 -31 19 -27 11 -35
11 -61 -5 -25 -14 -32 -15 -39 -4 -6 10 -9 11 -9 2 0 -17 -19 -16 -54 2 -15 8
-33 15 -40 14 -6 0 -2 -4 9 -9 17 -7 17 -9 3 -9 -21 -1 -25 -46 -5 -54 9 -4 9
-6 0 -6 -10 -1 -13 -191 -13 -916 l0 -915 1095 0 1095 0 0 1095 0 1096 -557
-3 c-313 -2 -566 -7 -577 -12 -12 -6 -17 -6 -13 0 3 5 -3 10 -14 10 -15 0 -19
-7 -19 -33z m110 23 c0 -2 -7 -7 -16 -10 -8 -3 -12 -2 -9 4 6 10 25 14 25 6z
m-72 -24 c2 -7 -2 -10 -12 -6 -9 3 -16 11 -16 16 0 13 23 5 28 -10z m39 -18
c-3 -3 -12 -4 -19 -1 -8 3 -5 6 6 6 11 1 17 -2 13 -5z m-217 -44 c0 -5 -4 -10
-10 -10 -5 0 -10 -8 -10 -17 0 -12 -3 -14 -10 -7 -14 14 -2 44 16 44 8 0 14
-4 14 -10z m-77 -79 c-4 -4 -12 -11 -17 -16 -5 -6 -6 -1 -2 12 6 19 4 22 -11
17 -15 -5 -15 -4 -3 4 15 12 48 -6 33 -17z m-60 -1 c-5 -19 -23 -39 -23 -25 0
9 20 45 24 45 2 0 2 -9 -1 -20z m-263 -60 c0 -5 -7 -10 -15 -10 -8 0 -15 -7
-15 -17 0 -9 -3 -13 -7 -9 -14 14 -9 31 12 38 11 3 21 6 23 7 1 1 2 -3 2 -9z
m50 -10 c0 -5 -2 -10 -4 -10 -3 0 -8 5 -11 10 -3 6 -1 10 4 10 6 0 11 -4 11
-10z m40 -10 c0 -5 -2 -10 -4 -10 -3 0 -8 5 -11 10 -3 6 -1 10 4 10 6 0 11 -4
11 -10z m50 -10 c0 -5 -4 -10 -10 -10 -5 0 -10 5 -10 10 0 6 5 10 10 10 6 0
10 -4 10 -10z m-220 -10 c0 -5 -2 -10 -4 -10 -3 0 -8 5 -11 10 -3 6 -1 10 4
10 6 0 11 -4 11 -10z m-210 -20 c0 -5 -4 -10 -10 -10 -5 0 -10 5 -10 10 0 6 5
10 10 10 6 0 10 -4 10 -10z m-22 -35 c-3 -3 -9 2 -12 12 -6 14 -5 15 5 6 7 -7
10 -15 7 -18z m222 21 c0 -2 -7 -7 -16 -10 -8 -3 -12 -2 -9 4 6 10 25 14 25 6z
m-310 -36 c0 -5 -4 -10 -9 -10 -6 0 -13 5 -16 10 -3 6 1 10 9 10 9 0 16 -4 16
-10z"/>
<path d="M807 2166 c-4 -9 -2 -16 3 -16 5 0 11 -8 13 -17 4 -15 5 -15 6 2 0
11 -3 26 -8 33 -7 11 -9 11 -14 -2z"/>
<path d="M915 2140 c3 -5 8 -10 11 -10 2 0 4 5 4 10 0 6 -5 10 -11 10 -5 0 -7
-4 -4 -10z"/>
<path d="M508 2000 c12 -11 24 -20 28 -20 4 0 -1 9 -11 20 -10 11 -23 20 -28
20 -6 0 -1 -9 11 -20z"/>
<path d="M362 1990 c-7 -11 -10 -20 -7 -20 3 0 14 9 25 20 12 12 15 20 7 20
-7 0 -18 -9 -25 -20z"/>
<path d="M170 1948 c0 -9 15 -21 33 -29 17 -7 35 -17 39 -23 12 -17 19 0 12
28 -3 15 -13 26 -23 26 -14 0 -14 -2 -1 -10 8 -5 11 -12 7 -16 -3 -4 -13 -1
-22 6 -8 7 -15 9 -15 4 0 -5 -7 0 -15 10 -12 16 -15 17 -15 4z"/>
<path d="M330 1956 c0 -2 7 -6 15 -10 8 -3 15 -1 15 4 0 6 -7 10 -15 10 -8 0
-15 -2 -15 -4z"/>
<path d="M74 1922 c3 -5 0 -13 -6 -15 -8 -3 -6 -6 5 -6 19 -1 23 14 5 25 -6 4
-8 3 -4 -4z"/>
</g>
</svg>
