<?xml version="1.0" standalone="no"?>
<!DOCTYPE svg PUBLIC "-//W3C//DTD SVG 20010904//EN"
 "http://www.w3.org/TR/2001/REC-SVG-20010904/DTD/svg10.dtd">
<svg version="1.0" xmlns="http://www.w3.org/2000/svg"
 width="318.000000pt" height="318.000000pt" viewBox="0 0 318.000000 318.000000"
 preserveAspectRatio="xMidYMid meet">

<g transform="translate(0.000000,318.000000) scale(0.100000,-0.100000)"
fill="#000000" stroke="none">
<path d="M91 2204 c0 -11 3 -14 6 -6 3 7 2 16 -1 19 -3 4 -6 -2 -5 -13z"/>
<path d="M35 2188 c-6 -13 -16 -22 -23 -20 -9 1 -12 -238 -12 -1083 l0 -1085
1590 0 1590 0 0 698 c0 494 -3 693 -11 682 -6 -9 -12 -11 -15 -4 -2 6 -17 9
-33 6 -22 -3 -30 1 -34 15 -3 10 -5 4 -6 -14 -1 -45 -21 -42 -21 4 0 20 -3 34
-6 30 -4 -3 -6 -25 -7 -49 0 -24 -2 -34 -5 -23 -2 11 -9 23 -16 27 -8 6 -7 8
2 8 7 0 4 8 -8 20 -21 21 -35 27 -25 10 3 -5 -3 -10 -14 -10 -10 0 -27 -3 -36
-6 -17 -7 -18 15 0 28 6 4 2 8 -7 8 -16 0 -23 -11 -19 -32 2 -17 -18 -7 -24
12 -3 11 -11 20 -16 20 -6 0 -7 -4 -4 -10 3 -5 0 -10 -8 -10 -8 0 -17 7 -21
15 -3 8 -13 15 -21 15 -9 0 -13 -4 -10 -10 3 -5 0 -10 -9 -10 -8 0 -16 6 -19
13 -3 8 -10 6 -21 -8 -15 -19 -17 -19 -27 -2 -6 10 -22 17 -39 17 -23 0 -30 5
-30 20 0 11 5 20 12 20 6 0 8 3 5 6 -4 4 -13 2 -20 -5 -17 -13 -133 -7 -130 8
1 5 -4 12 -12 15 -8 3 -15 1 -15 -4 0 -6 -7 -10 -16 -10 -8 0 -12 5 -9 10 3 6
1 10 -4 10 -6 0 -11 -8 -11 -17 0 -15 -2 -16 -10 -3 -9 13 -11 13 -19 1 -7
-11 -11 -5 -16 23 -8 39 -25 37 -28 -3 -1 -11 -8 -21 -15 -21 -9 0 -12 7 -9
20 3 13 0 20 -9 20 -8 0 -14 7 -14 15 0 21 -20 19 -21 -2 0 -10 -3 -13 -5 -7
-3 7 -13 10 -23 7 -13 -3 -20 2 -24 17 -4 17 -9 20 -24 12 -23 -11 -77 -6 -81
8 -2 5 -16 11 -30 11 -27 1 -27 1 3 9 l30 8 -30 2 c-26 1 -27 3 -10 10 18 8
17 9 -7 9 -21 1 -26 -3 -23 -17 6 -32 -8 -42 -40 -32 -30 10 -30 10 -2 6 17
-2 27 1 27 10 0 17 -20 29 -21 12 0 -7 -4 -4 -9 7 -7 18 -9 18 -15 3 -5 -13
-12 -15 -35 -6 -16 5 -32 19 -35 29 -6 19 -7 19 -23 2 -21 -23 -43 -28 -36 -8
4 10 0 15 -12 15 -16 0 -16 2 -4 10 9 5 19 5 27 -2 11 -8 12 -7 7 8 -12 34
-17 37 -26 20 -8 -14 -13 -15 -24 -5 -11 9 -14 8 -14 -6 0 -9 -6 -15 -12 -12
-7 2 -12 14 -11 26 2 12 -1 20 -6 17 -5 -4 -12 0 -14 6 -3 8 -6 5 -6 -5 -1
-10 -6 -17 -12 -15 -6 2 -10 8 -9 13 2 15 -34 23 -50 11 -10 -7 -9 -3 3 10 21
25 22 35 2 28 -8 -4 -22 -1 -30 6 -17 14 -21 0 -5 -16 6 -6 3 -10 -9 -10 -11
0 -17 4 -15 8 3 4 -4 8 -16 8 -12 0 -19 4 -15 9 3 6 -10 13 -29 16 -26 5 -33
11 -29 23 4 12 1 11 -10 -3 -10 -12 -16 -15 -17 -7 0 9 -7 11 -19 7 -13 -4
-25 2 -37 18 -11 13 -23 24 -29 26 -5 1 -9 11 -7 21 2 11 -2 20 -7 20 -6 0
-11 -9 -11 -20 0 -13 -5 -18 -15 -14 -8 4 -15 13 -15 22 0 8 -3 12 -6 9 -4 -4
-1 -20 6 -38 12 -27 17 -30 44 -25 22 4 27 3 16 -4 -22 -14 -50 -12 -56 4 -3
8 -14 16 -24 19 -10 3 -20 13 -23 23 -2 11 -2 1 -1 -21 3 -29 2 -34 -5 -20
l-8 20 -6 -20 c-4 -11 -4 -3 -2 18 l4 39 -24 -26 c-29 -31 -32 -32 -31 -5 1
27 -25 45 -50 34 -13 -5 -15 -9 -6 -12 13 -5 7 -23 -9 -23 -5 0 -9 15 -9 33 0
21 -3 28 -9 19 -6 -11 -10 -10 -15 3 -4 12 -13 15 -31 11 -14 -4 -25 -2 -25 3
0 14 -38 20 -44 7 -2 -6 -5 -2 -6 9 l-1 20 -9 -20 c-6 -17 -9 -14 -15 18 -7
37 -21 49 -27 24 -2 -8 -13 -10 -33 -6 -23 5 -25 7 -7 8 24 1 27 9 11 31 -9
13 -10 12 -5 -2 4 -13 0 -18 -14 -18 -10 0 -24 -8 -30 -17 -8 -13 -13 -15 -16
-5 -3 7 -12 19 -20 26 -11 12 -11 15 1 20 8 3 15 11 14 18 0 9 -2 10 -5 1 -3
-7 -12 -9 -20 -6 -8 3 -17 -4 -23 -18 -9 -22 -10 -22 -11 -4 -1 19 -2 19 -10
-1 -6 -17 -15 -20 -34 -17 -25 5 -25 6 -9 18 15 11 19 11 25 -3 8 -21 10 0 2
22 -5 14 -9 14 -35 0 -16 -8 -29 -10 -29 -5 0 6 9 15 20 21 11 6 20 16 20 23
0 9 -2 9 -8 1 -4 -6 -22 -15 -39 -19 -19 -4 -33 -13 -33 -21 0 -9 -4 -13 -10
-9 -5 3 -7 11 -4 18 5 13 -53 53 -63 43 -4 -3 0 -6 7 -6 9 0 7 -5 -6 -15 -25
-19 -40 -19 -25 -1 10 12 7 18 -18 30 -40 21 -48 20 -20 -2 17 -15 19 -21 9
-27 -9 -5 -11 -4 -6 3 4 7 3 12 -3 12 -5 0 -11 -3 -14 -7 -2 -5 -2 -2 -1 5 2
6 -3 12 -10 12 -8 0 -13 -8 -11 -17 1 -10 0 -12 -2 -5 -3 8 -10 12 -16 9 -7
-2 -20 5 -29 15 -14 14 -15 18 -4 18 8 0 16 -5 18 -12 3 -7 9 -8 18 -3 25 15
-33 36 -71 25 -28 -8 -39 -7 -61 10 -25 18 -28 18 -36 3 -9 -14 -11 -14 -22 6
-12 24 -25 21 -25 -6 0 -9 -6 -18 -14 -21 -10 -3 -12 0 -8 11 3 9 2 19 -4 22
-5 4 -7 10 -4 15 6 10 -21 7 -31 -3 -12 -11 -24 -8 -20 6 1 6 1 9 -1 5 -7 -13
-41 -9 -46 5 -4 9 -6 9 -6 -1 -1 -8 -9 -10 -25 -6 -13 3 -34 0 -47 -6 -20 -11
-21 -10 -16 9 3 11 2 21 -3 21 -4 0 -11 -11 -14 -25 -4 -14 -11 -25 -17 -25
-6 0 -7 5 -4 10 3 6 -1 10 -9 10 -8 0 -18 9 -21 21 -4 12 -12 18 -21 15 -8 -3
-14 1 -14 8 0 8 6 17 13 19 8 4 7 6 -3 6 -8 1 -20 -9 -25 -21z m14 -78 c1 -13
0 -13 -9 0 -5 8 -9 24 -9 35 l0 20 9 -20 c5 -11 9 -27 9 -35z m29 39 c-2 -6
-8 -10 -13 -10 -5 0 -11 4 -13 10 -2 6 4 11 13 11 9 0 15 -5 13 -11z m192 -23
c0 -2 -9 -6 -20 -9 -11 -3 -20 -1 -20 4 0 5 9 9 20 9 11 0 20 -2 20 -4z m60
-6 c0 -5 -8 -10 -17 -10 -15 0 -16 2 -3 10 19 12 20 12 20 0z m-233 -6 c-3 -3
-12 -4 -19 -1 -8 3 -5 6 6 6 11 1 17 -2 13 -5z m353 -35 c0 -28 -15 -23 -18 7
-1 14 2 23 8 19 6 -3 10 -15 10 -26z m17 -11 c-3 -8 -6 -5 -6 6 -1 11 2 17 5
13 3 -3 4 -12 1 -19z m60 -30 c-3 -8 -6 -5 -6 6 -1 11 2 17 5 13 3 -3 4 -12 1
-19z m386 -85 c-7 -2 -19 -2 -25 0 -7 3 -2 5 12 5 14 0 19 -2 13 -5z m147 -23
c0 -5 -4 -10 -10 -10 -5 0 -10 5 -10 10 0 6 5 10 10 10 6 0 10 -4 10 -10z
m450 -160 c0 -5 -2 -10 -4 -10 -3 0 -8 5 -11 10 -3 6 -1 10 4 10 6 0 11 -4 11
-10z m123 -16 c-3 -9 -9 -11 -12 -6 -3 5 -13 12 -21 15 -9 3 -4 6 12 6 21 1
26 -3 21 -15z m52 -54 c3 -5 1 -10 -4 -10 -6 0 -11 5 -11 10 0 6 2 10 4 10 3
0 8 -4 11 -10z m105 -30 c0 -5 -2 -10 -4 -10 -3 0 -8 5 -11 10 -3 6 -1 10 4
10 6 0 11 -4 11 -10z m453 -135 c4 -8 3 -16 -1 -19 -4 -3 -9 4 -9 15 -2 23 3
25 10 4z m322 -86 c11 -16 1 -19 -13 -3 -7 8 -8 14 -3 14 5 0 13 -5 16 -11z
m150 -29 c3 -6 -1 -7 -9 -4 -18 7 -21 14 -7 14 6 0 13 -4 16 -10z m158 -27
c-7 -2 -19 -2 -25 0 -7 3 -2 5 12 5 14 0 19 -2 13 -5z m117 -15 c0 7 5 10 10
7 13 -8 3 -25 -16 -25 -8 0 -14 8 -14 18 0 14 2 15 10 2 7 -11 10 -11 10 -2z"/>
<path d="M131 2194 c0 -11 3 -14 6 -6 3 7 2 16 -1 19 -3 4 -6 -2 -5 -13z"/>
<path d="M488 2113 c7 -3 16 -2 19 1 4 3 -2 6 -13 5 -11 0 -14 -3 -6 -6z"/>
<path d="M792 2061 c-11 -7 -11 -9 2 -14 10 -4 16 -1 16 8 0 17 -1 17 -18 6z"/>
<path d="M1105 1971 c-3 -5 -1 -12 4 -15 5 -3 11 1 15 9 6 16 -9 21 -19 6z"/>
<path d="M1150 1966 c0 -2 9 -6 20 -9 11 -3 20 -1 20 4 0 5 -9 9 -20 9 -11 0
-20 -2 -20 -4z"/>
<path d="M1150 1942 c0 -13 42 -24 53 -13 4 4 2 8 -5 8 -7 0 -21 4 -30 8 -10
4 -18 3 -18 -3z"/>
<path d="M1225 1920 c-3 -5 1 -10 9 -10 9 0 16 5 16 10 0 6 -4 10 -9 10 -6 0
-13 -4 -16 -10z"/>
<path d="M1272 1910 c-10 -17 -10 -20 3 -20 8 0 15 9 15 20 0 11 -1 20 -3 20
-1 0 -8 -9 -15 -20z"/>
<path d="M1346 1885 c-3 -8 -1 -15 3 -15 5 0 11 7 15 15 3 8 1 15 -3 15 -5 0
-11 -7 -15 -15z"/>
<path d="M1945 1680 c-3 -5 -1 -10 4 -10 6 0 11 5 11 10 0 6 -2 10 -4 10 -3 0
-8 -4 -11 -10z"/>
<path d="M2036 1663 c-3 -10 -9 -24 -12 -30 -3 -7 -1 -13 4 -13 5 0 12 8 16
18 3 9 9 23 12 30 3 6 1 12 -4 12 -5 0 -12 -8 -16 -17z"/>
<path d="M1980 1656 c0 -4 7 -14 15 -22 8 -9 15 -11 15 -6 0 5 -7 15 -15 22
-8 7 -15 9 -15 6z"/>
<path d="M2183 1595 c0 -8 4 -15 9 -15 4 0 8 7 8 15 0 8 -4 15 -8 15 -5 0 -9
-7 -9 -15z"/>
<path d="M2300 1570 c0 -5 5 -10 10 -10 6 0 10 5 10 10 0 6 -4 10 -10 10 -5 0
-10 -4 -10 -10z"/>
<path d="M2476 1547 c3 -10 9 -15 12 -12 3 3 0 11 -7 18 -10 9 -11 8 -5 -6z"/>
</g>
</svg>
